<svg width="100" height="100" viewBox="0 0 100 100" fill="none" xmlns="http://www.w3.org/2000/svg">
<circle cx="50" cy="50" r="50" fill="#789DBC"/>
<path fill-rule="evenodd" clip-rule="evenodd" d="M64.1977 31.5258C63.239 31.1288 62.2114 30.9246 61.1736 30.9248C60.1359 30.925 59.1084 31.1297 58.1498 31.5272C57.1913 31.9246 56.3204 32.5071 55.5869 33.2412L52.7105 36.1177C51.5536 37.2745 49.6779 37.2745 48.521 36.1177C47.3641 34.9608 47.3641 33.0851 48.521 31.9282L51.3955 29.0537C51.3957 29.0535 51.3959 29.0533 51.3961 29.0531C51.3962 29.053 51.3964 29.0528 51.3965 29.0527C52.6798 27.7684 54.2035 26.7495 55.8806 26.0542C57.5581 25.3586 59.3563 25.0004 61.1723 25C62.9883 24.9996 64.7866 25.357 66.4644 26.0517C68.1423 26.7465 69.6668 27.765 70.9509 29.0491C72.235 30.3332 73.2535 31.8577 73.9483 33.5356C74.6431 35.2134 75.0004 37.0117 75 38.8277C74.9996 40.6437 74.6414 42.4419 73.9458 44.1194C73.2505 45.7965 72.2316 47.3202 70.9473 48.6035C70.947 48.6038 70.9467 48.6042 70.9463 48.6045L63.9649 55.586C62.6812 56.8697 61.1572 57.888 59.4799 58.5827C57.8026 59.2775 56.0049 59.6351 54.1895 59.6351C52.374 59.6351 50.5763 59.2775 48.8991 58.5827C47.2218 57.888 45.6978 56.8697 44.4141 55.586C43.2572 54.4291 43.2572 52.5534 44.4141 51.3965C45.5709 50.2396 47.4466 50.2396 48.6035 51.3965C49.3371 52.1301 50.2079 52.7119 51.1664 53.1089C52.1248 53.5059 53.1521 53.7103 54.1895 53.7103C55.2269 53.7103 56.2541 53.5059 57.2126 53.1089C58.171 52.7119 59.0419 52.1301 59.7754 51.3965L66.7588 44.4131C67.493 43.6796 68.0754 42.8088 68.4728 41.8502C68.8703 40.8916 69.075 39.8641 69.0752 38.8264C69.0755 37.7886 68.8712 36.761 68.4742 35.8023C68.0772 34.8435 67.4952 33.9724 66.7614 33.2386C66.0277 32.5048 65.1565 31.9228 64.1977 31.5258Z" fill="white"/>
<path fill-rule="evenodd" clip-rule="evenodd" d="M45.8105 46.2898C44.7731 46.2898 43.7459 46.4941 42.7874 46.8911C41.829 47.2881 40.9581 47.87 40.2246 48.6036L33.2412 55.587C32.5071 56.3204 31.9246 57.1913 31.5272 58.1499C31.1297 59.1085 30.925 60.136 30.9248 61.1737C30.9246 62.2114 31.1288 63.239 31.5258 64.1978C31.9228 65.1565 32.5048 66.0277 33.2386 66.7615C33.9723 67.4953 34.8435 68.0773 35.8023 68.4743C36.761 68.8713 37.7886 69.0755 38.8264 69.0753C39.8641 69.075 40.8916 68.8703 41.8502 68.4729C42.8088 68.0754 43.6796 67.493 44.4131 66.7589L47.2891 63.8828C48.446 62.726 50.3217 62.726 51.4786 63.8829C52.6355 65.0397 52.6355 66.9154 51.4786 68.0723L48.6045 70.9464C48.6042 70.9467 48.6038 70.947 48.6035 70.9474C47.3202 72.2316 45.7965 73.2505 44.1194 73.9459C42.4419 74.6414 40.6437 74.9996 38.8277 75.0001C37.0117 75.0005 35.2134 74.6431 33.5356 73.9483C31.8577 73.2536 30.3332 72.2351 29.0491 70.9509C27.765 69.6668 26.7465 68.1423 26.0517 66.4645C25.357 64.7866 24.9996 62.9883 25 61.1723C25.0004 59.3563 25.3586 57.5582 26.0542 55.8807C26.7495 54.2036 27.7684 52.6798 29.0527 51.3965C29.0529 51.3963 29.0532 51.3961 29.0534 51.3958C29.0535 51.3957 29.0536 51.3957 29.0537 51.3956L36.0351 44.4141C37.3189 43.1304 38.8429 42.1121 40.5201 41.4173C42.1974 40.7226 43.9951 40.365 45.8105 40.365C47.626 40.365 49.4237 40.7226 51.101 41.4173C52.7782 42.1121 54.3022 43.1304 55.586 44.4141C56.7428 45.571 56.7428 47.4467 55.586 48.6036C54.4291 49.7605 52.5534 49.7605 51.3965 48.6036C50.6629 47.87 49.7921 47.2881 48.8336 46.8911C47.8752 46.4941 46.848 46.2898 45.8105 46.2898Z" fill="white"/>
</svg>
