<svg width="100" height="100" viewBox="0 0 100 100" fill="none" xmlns="http://www.w3.org/2000/svg">
<circle cx="50" cy="50" r="50" fill="#789DBC"/>
<path d="M49.6324 25C43.5459 25.0003 37.6581 27.1662 33.0226 31.1104C28.387 35.0545 25.306 40.5194 24.3311 46.5272C23.3561 52.5351 24.5507 58.6939 27.7011 63.9015C30.8515 69.1092 35.7522 73.0259 41.5262 74.9509C42.8078 75.1753 43.2884 74.4063 43.2884 73.7334C43.2884 73.1247 43.2564 71.1061 43.2564 68.9594C36.8162 70.1449 35.1501 67.3895 34.6375 65.9477C34.0686 64.5454 33.1669 63.3027 32.0102 62.327C31.113 61.8464 29.8314 60.6609 31.9781 60.629C32.7978 60.7179 33.584 61.0031 34.27 61.4605C34.956 61.9178 35.5217 62.5338 35.9191 63.2562C36.2697 63.886 36.7411 64.4404 37.3063 64.8877C37.8715 65.335 38.5194 65.6663 39.2129 65.8628C39.9064 66.0592 40.6319 66.1169 41.3477 66.0325C42.0635 65.9481 42.7557 65.7232 43.3844 65.3709C43.4954 64.0678 44.0762 62.8494 45.0186 61.9426C39.3154 61.3018 33.3559 59.0909 33.3559 49.2867C33.3198 46.7392 34.2599 44.2745 35.9832 42.398C35.1995 40.1839 35.2912 37.7542 36.2395 35.6054C36.2395 35.6054 38.3861 34.9326 43.2884 38.2328C47.4826 37.0792 51.9103 37.0792 56.1045 38.2328C61.0067 34.9006 63.1534 35.6054 63.1534 35.6054C64.1018 37.7541 64.1935 40.184 63.4097 42.398C65.1382 44.2713 66.0791 46.7381 66.037 49.2867C66.037 59.123 60.0454 61.3018 54.3423 61.9426C54.954 62.5626 55.4252 63.307 55.7237 64.1252C56.0222 64.9435 56.1412 65.8163 56.0725 66.6846C56.0725 70.113 56.0404 72.8684 56.0404 73.7335C56.0404 74.4064 56.521 75.2074 57.8026 74.951C63.5665 73.0103 68.4531 69.0844 71.5901 63.8741C74.7271 58.6638 75.9103 52.5082 74.9286 46.5061C73.9469 40.5041 70.8641 35.0463 66.2305 31.1069C61.5969 27.1676 55.7142 25.0032 49.6324 25Z" fill="white"/>
</svg>
