<svg width="100" height="100" viewBox="0 0 100 100" fill="none" xmlns="http://www.w3.org/2000/svg">
<circle cx="50" cy="50" r="50" fill="#789DBC"/>
<path d="M63.35 33.65C62.7567 33.65 62.1766 33.8259 61.6833 34.1556C61.1899 34.4852 60.8054 34.9538 60.5784 35.5019C60.3513 36.0501 60.2919 36.6533 60.4076 37.2353C60.5234 37.8172 60.8091 38.3518 61.2287 38.7713C61.6482 39.1909 62.1828 39.4766 62.7647 39.5924C63.3467 39.7081 63.9499 39.6487 64.4981 39.4216C65.0462 39.1946 65.5148 38.8101 65.8444 38.3167C66.1741 37.8234 66.35 37.2433 66.35 36.65C66.35 35.8544 66.0339 35.0913 65.4713 34.5287C64.9087 33.9661 64.1456 33.65 63.35 33.65ZM74.85 39.7C74.8014 37.6257 74.4129 35.5735 73.7 33.625C73.0643 31.9578 72.075 30.4482 70.8 29.2C69.5621 27.9186 68.0489 26.9354 66.375 26.325C64.4316 25.5904 62.3771 25.193 60.3 25.15C57.65 25 56.8 25 50 25C43.2 25 42.35 25 39.7 25.15C37.6229 25.193 35.5684 25.5904 33.625 26.325C31.9542 26.9416 30.4423 27.9239 29.2 29.2C27.9186 30.4379 26.9354 31.9511 26.325 33.625C25.5904 35.5684 25.193 37.6229 25.15 39.7C25 42.35 25 43.2 25 50C25 56.8 25 57.65 25.15 60.3C25.193 62.3771 25.5904 64.4316 26.325 66.375C26.9354 68.0489 27.9186 69.5621 29.2 70.8C30.4423 72.0761 31.9542 73.0584 33.625 73.675C35.5684 74.4096 37.6229 74.807 39.7 74.85C42.35 75 43.2 75 50 75C56.8 75 57.65 75 60.3 74.85C62.3771 74.807 64.4316 74.4096 66.375 73.675C68.0489 73.0646 69.5621 72.0814 70.8 70.8C72.0806 69.5565 73.0708 68.0455 73.7 66.375C74.4129 64.4265 74.8014 62.3743 74.85 60.3C74.85 57.65 75 56.8 75 50C75 43.2 75 42.35 74.85 39.7ZM70.35 60C70.3318 61.5869 70.0444 63.1593 69.5 64.65C69.1008 65.738 68.4597 66.7211 67.625 67.525C66.8141 68.3513 65.8331 68.9911 64.75 69.4C63.2593 69.9444 61.6869 70.2318 60.1 70.25C57.6 70.375 56.675 70.4 50.1 70.4C43.525 70.4 42.6 70.4 40.1 70.25C38.4522 70.2809 36.8115 70.0271 35.25 69.5C34.2145 69.0702 33.2784 68.432 32.5 67.625C31.6702 66.8219 31.0371 65.838 30.65 64.75C30.0396 63.2379 29.7011 61.6299 29.65 60C29.65 57.5 29.5 56.575 29.5 50C29.5 43.425 29.5 42.5 29.65 40C29.6612 38.3776 29.9574 36.7699 30.525 35.25C30.9651 34.1948 31.6407 33.2541 32.5 32.5C33.2595 31.6404 34.1982 30.9577 35.25 30.5C36.7739 29.9501 38.38 29.6627 40 29.65C42.5 29.65 43.425 29.5 50 29.5C56.575 29.5 57.5 29.5 60 29.65C61.5869 29.6682 63.1593 29.9556 64.65 30.5C65.7861 30.9216 66.8057 31.6071 67.625 32.5C68.4443 33.2679 69.0844 34.2068 69.5 35.25C70.0556 36.7723 70.3432 38.3794 70.35 40C70.475 42.5 70.5 43.425 70.5 50C70.5 56.575 70.475 57.5 70.35 60ZM50 37.175C47.4645 37.1799 44.9874 37.9363 42.8816 39.3485C40.7759 40.7608 39.1359 42.7655 38.1691 45.1094C37.2022 47.4533 36.9518 50.0312 37.4495 52.5173C37.9472 55.0035 39.1706 57.2863 40.9652 59.0774C42.7598 60.8686 45.045 62.0875 47.5321 62.5804C50.0193 63.0732 52.5967 62.8178 54.9387 61.8463C57.2807 60.8749 59.2822 59.2311 60.6903 57.1226C62.0984 55.0141 62.85 52.5355 62.85 50C62.8533 48.3128 62.523 46.6415 61.8781 45.0824C61.2332 43.5233 60.2864 42.107 59.0922 40.9151C57.898 39.7232 56.4799 38.7792 54.9195 38.1373C53.3591 37.4955 51.6872 37.1684 50 37.175ZM50 58.325C48.3535 58.325 46.7439 57.8367 45.3749 56.922C44.0058 56.0072 42.9388 54.707 42.3087 53.1858C41.6786 51.6646 41.5137 49.9908 41.835 48.3759C42.1562 46.761 42.9491 45.2776 44.1133 44.1133C45.2776 42.9491 46.761 42.1562 48.3759 41.835C49.9908 41.5137 51.6646 41.6786 53.1858 42.3087C54.707 42.9388 56.0072 44.0058 56.922 45.3749C57.8367 46.7439 58.325 48.3535 58.325 50C58.325 51.0933 58.1097 52.1758 57.6913 53.1858C57.2729 54.1959 56.6597 55.1136 55.8867 55.8867C55.1136 56.6597 54.1959 57.2729 53.1858 57.6913C52.1758 58.1097 51.0933 58.325 50 58.325Z" fill="white"/>
</svg>
