<svg width="100" height="100" viewBox="0 0 100 100" fill="none" xmlns="http://www.w3.org/2000/svg">
<circle cx="50" cy="50" r="50" fill="#789DBC"/>
<path d="M32.1888 33.4706H32.1141C31.3235 33.5199 30.5311 33.4058 29.7867 33.1355C29.0423 32.8652 28.3618 32.4445 27.7879 31.8998C27.214 31.355 26.759 30.6979 26.4514 29.9697C26.1439 29.2414 25.9903 28.4577 26.0005 27.6675C26.0106 26.8773 26.1842 26.0977 26.5103 25.3775C26.8364 24.6573 27.3081 24.0121 27.8958 23.4821C28.4835 22.9522 29.1745 22.549 29.9256 22.2978C30.6767 22.0466 31.4718 21.9528 32.2609 22.0222C33.0516 21.9671 33.8452 22.0755 34.5919 22.3407C35.3386 22.6058 36.0224 23.0219 36.6003 23.563C37.1783 24.104 37.638 24.7583 37.9506 25.4849C38.2632 26.2114 38.422 26.9946 38.417 27.7852C38.412 28.5758 38.2434 29.3569 37.9216 30.0795C37.5999 30.8021 37.132 31.4506 36.5473 31.9843C35.9626 32.5181 35.2736 32.9256 34.5236 33.1814C33.7736 33.4371 32.9787 33.5356 32.1888 33.4706ZM27.0749 41.1765H37.3749V72H27.0749V41.1765ZM64.4125 41.1765C62.6769 41.1812 60.9648 41.577 59.4042 42.3345C57.8436 43.092 56.4747 44.1915 55.3999 45.5508V41.1765H45.0999V72H55.3999V57.8726C55.3999 56.5101 55.9425 55.2034 56.9083 54.24C57.8742 53.2765 59.1841 52.7353 60.55 52.7353C61.9158 52.7353 63.2257 53.2765 64.1916 54.24C65.1574 55.2034 65.7 56.5101 65.7 57.8726V72H76V52.7353C76 49.6697 74.7792 46.7297 72.6061 44.562C70.433 42.3943 67.4857 41.1765 64.4125 41.1765Z" fill="white"/>
</svg>
