<svg width="100" height="100" viewBox="0 0 100 100" fill="none" xmlns="http://www.w3.org/2000/svg">
<circle cx="50" cy="50" r="50" fill="#789DBC"/>
<path d="M58.4373 43.1474C59.9708 41.614 61.4931 38.0359 55.1037 42.3807C49.135 46.4885 43.1259 50.5371 37.0772 54.5261C36.1562 54.9426 35.1604 55.1686 34.1498 55.1906C33.1391 55.2126 32.1345 55.03 31.1962 54.6539C27.3625 53.5038 22.8872 51.9704 22.8872 51.9704C22.8872 51.9704 19.8314 50.0508 25.0624 48.0061C25.0624 48.0061 47.1781 38.9304 54.8481 35.7329C57.7873 34.455 67.7575 30.3658 67.7575 30.3658C67.7575 30.3658 72.3607 28.574 71.9773 32.9216C71.8495 34.7106 70.8272 40.9778 69.8049 47.7506C68.2687 57.3375 66.6074 67.8217 66.6074 67.8217C66.6074 67.8217 66.3519 70.7608 64.1795 71.2719C61.8539 71.2326 59.607 70.4237 57.79 68.9717C57.2789 68.5884 48.2031 62.8351 44.8779 60.0238C44.5396 59.7947 44.2648 59.4837 44.079 59.1198C43.8932 58.7559 43.8025 58.351 43.8152 57.9426C43.828 57.5343 43.9438 57.1357 44.152 56.7842C44.3601 56.4326 44.6538 56.1394 45.0057 55.9318C49.5665 51.759 54.0445 47.4967 58.4373 43.1474Z" fill="white"/>
</svg>
