<svg width="100" height="100" viewBox="0 0 100 100" fill="none" xmlns="http://www.w3.org/2000/svg">
<circle cx="50" cy="50" r="50" fill="#789DBC"/>
<path d="M61.4732 48.174C61.2578 48.0708 61.0391 47.9715 60.8174 47.8763C60.4315 40.7652 56.5458 36.694 50.0213 36.6523C49.9918 36.6522 49.9624 36.6522 49.9328 36.6522C46.0303 36.6522 42.7847 38.3179 40.787 41.3491L44.3753 43.8106C45.8676 41.5464 48.2097 41.0637 49.9345 41.0637C49.9545 41.0637 49.9745 41.0637 49.9942 41.0639C52.1424 41.0776 53.7635 41.7022 54.8128 42.9203C55.5763 43.8071 56.087 45.0326 56.3398 46.5791C54.4352 46.2554 52.3753 46.1559 50.1732 46.2821C43.97 46.6394 39.9821 50.2573 40.2499 55.2844C40.3858 57.8344 41.6562 60.0281 43.8268 61.4612C45.6621 62.6727 48.0258 63.2651 50.4824 63.131C53.7266 62.9531 56.2716 61.7154 58.0471 59.4521C59.3956 57.7333 60.2484 55.506 60.625 52.6995C62.1711 53.6326 63.3169 54.8604 63.9497 56.3365C65.0258 58.8456 65.0885 62.9687 61.7242 66.3302C58.7766 69.275 55.2333 70.549 49.8785 70.5883C43.9386 70.5443 39.4463 68.6393 36.5255 64.9263C33.7905 61.4495 32.377 56.4276 32.3243 50C32.377 43.5723 33.7905 38.5504 36.5255 35.0736C39.4463 31.3607 43.9385 29.4557 49.8784 29.4116C55.8615 29.4561 60.432 31.3702 63.4646 35.101C64.9516 36.9306 66.0727 39.2315 66.8117 41.9141L71.0167 40.7922C70.1208 37.4902 68.7112 34.6447 66.793 32.2849C62.9052 27.5017 57.2193 25.0508 49.8931 25H49.8638C42.5525 25.0506 36.9302 27.5109 33.1532 32.3123C29.7922 36.585 28.0584 42.5301 28.0002 49.9824L28 50L28.0002 50.0176C28.0584 57.4698 29.7922 63.4151 33.1532 67.6878C36.9302 72.4891 42.5525 74.9495 49.8638 75H49.8931C56.3932 74.9549 60.975 73.2531 64.7495 69.482C69.6878 64.5484 69.5391 58.3643 67.9115 54.568C66.7437 51.8456 64.5174 49.6344 61.4732 48.174ZM50.2501 58.7258C47.5314 58.8789 44.7069 57.6586 44.5676 55.0448C44.4644 53.1068 45.9468 50.9443 50.417 50.6867C50.9289 50.6571 51.4312 50.6427 51.9247 50.6427C53.5484 50.6427 55.0674 50.8004 56.4484 51.1023C55.9333 57.5352 52.912 58.5797 50.2501 58.7258Z" fill="white"/>
</svg>
