<svg width="100" height="100" viewBox="0 0 100 100" fill="none" xmlns="http://www.w3.org/2000/svg">
<circle cx="50" cy="50" r="50" fill="#789DBC"/>
<path d="M72.2532 46.4352V37.7074C68.166 37.7074 65.0467 36.6165 63.0338 34.496C60.9679 32.076 59.8105 29.0113 59.7609 25.8297V25.1998L51.5095 25V60.4487C51.2265 61.9953 50.4757 63.4179 49.3585 64.5243C48.2414 65.6308 46.8117 66.3678 45.2624 66.6359C43.713 66.9041 42.1188 66.6904 40.6948 66.0237C39.2707 65.3571 38.0856 64.2696 37.2992 62.908C36.5128 61.5464 36.1632 59.9764 36.2974 58.4098C36.4316 56.8432 37.0433 55.3555 38.0498 54.1475C39.0563 52.9396 40.4092 52.0695 41.9259 51.6548C43.4425 51.2401 45.0499 51.3007 46.531 51.8285V43.3774C45.6675 43.2359 44.7939 43.1639 43.9189 43.1623C40.7704 43.1623 37.6927 44.0959 35.0748 45.8451C32.457 47.5943 30.4166 50.0804 29.2118 52.9892C28.0069 55.898 27.6917 59.0988 28.3059 62.1867C28.9201 65.2747 30.4362 68.1112 32.6625 70.3375C34.8888 72.5638 37.7253 74.0799 40.8133 74.6941C43.9012 75.3083 47.102 74.9931 50.0108 73.7882C52.9196 72.5834 55.4057 70.543 57.1549 67.9252C58.9041 65.3073 59.8377 62.2296 59.8377 59.0811C59.836 58.4288 59.795 57.7771 59.7148 57.1297V43.0701C63.4668 45.4132 67.8322 46.5848 72.2532 46.4352Z" fill="white"/>
</svg>
