<svg width="100" height="100" viewBox="0 0 100 100" fill="none" xmlns="http://www.w3.org/2000/svg">
<circle cx="50" cy="50" r="50" fill="#789DBC"/>
<path fill-rule="evenodd" clip-rule="evenodd" d="M67.524 32.2661C62.8448 27.583 56.6219 25.0026 49.992 25C36.3314 25 25.2133 36.1138 25.2078 49.7746C25.206 54.1413 26.3473 58.4038 28.516 62.161L25 75L38.1385 71.5547C41.7584 73.5285 45.8341 74.5687 49.9821 74.5704H49.9923C63.6516 74.5704 74.7707 63.4552 74.7762 49.7944C74.7788 43.1742 72.2033 36.9492 67.524 32.2661ZM49.9923 70.3858H49.9839C46.2876 70.3844 42.6621 69.3917 39.4994 67.5154L38.7471 67.0691L30.9507 69.1137L33.0317 61.5145L32.5419 60.7355C30.4798 57.4567 29.3907 53.6671 29.3923 49.7761C29.3969 38.4219 38.6379 29.1845 50.0005 29.1845C55.5025 29.1866 60.6747 31.3315 64.5639 35.2239C68.4532 39.1163 70.5938 44.2903 70.5917 49.7927C70.587 61.1478 61.3462 70.3858 49.9923 70.3858ZM61.2916 54.9629C60.6722 54.653 57.6277 53.1553 57.06 52.9487C56.4924 52.7421 56.0796 52.6388 55.6667 53.2586C55.2539 53.8783 54.0671 55.2728 53.7057 55.6859C53.3446 56.0991 52.9834 56.1508 52.3641 55.8409C51.7448 55.531 49.7495 54.8773 47.3841 52.7682C45.5432 51.1268 44.3003 49.0993 43.939 48.4796C43.5778 47.8598 43.9006 47.5247 44.2106 47.2161C44.4892 46.9387 44.8299 46.4931 45.1395 46.1315C45.4491 45.77 45.5523 45.5118 45.7587 45.0987C45.9652 44.6855 45.862 44.324 45.7071 44.0141C45.5523 43.7042 44.3139 40.6571 43.7978 39.4176C43.2952 38.2104 42.7846 38.3738 42.4045 38.3549C42.0437 38.3369 41.6304 38.3331 41.2176 38.3331C40.8048 38.3331 40.1339 38.488 39.5662 39.1077C38.9986 39.7275 37.3989 41.2252 37.3989 44.2723C37.3989 47.3194 39.6178 50.2632 39.9275 50.6763C40.2371 51.0895 44.2942 57.3426 50.5063 60.0242C51.9838 60.662 53.1373 61.0428 54.0367 61.3283C55.5202 61.7994 56.8702 61.7329 57.9372 61.5735C59.127 61.3958 61.6011 60.0759 62.1172 58.6298C62.6332 57.1837 62.6332 55.9442 62.4784 55.686C62.3236 55.4277 61.9108 55.2728 61.2916 54.9629Z" fill="white"/>
</svg>
