<svg width="100" height="100" viewBox="0 0 100 100" fill="none" xmlns="http://www.w3.org/2000/svg">
<circle cx="50" cy="50" r="50" fill="#789DBC"/>
<mask id="path-2-inside-1_60_355" fill="white">
<path d="M54.6667 46.8L70.3333 30H66.3333L52.8667 44.4L42.3333 30H29L45.4 52.4L29 70H33L47.2 54.8L58.3333 70H71.6667L54.6667 46.8ZM34.9333 32.6667H40.2667L65.6667 67.3333H60.3333L34.9333 32.6667Z"/>
</mask>
<path d="M54.6667 46.8L70.3333 30H66.3333L52.8667 44.4L42.3333 30H29L45.4 52.4L29 70H33L47.2 54.8L58.3333 70H71.6667L54.6667 46.8ZM34.9333 32.6667H40.2667L65.6667 67.3333H60.3333L34.9333 32.6667Z" fill="white"/>
<path d="M54.6667 46.8L51.0099 43.39L48.1872 46.4168L50.6335 49.7553L54.6667 46.8ZM70.3333 30L73.9901 33.41L81.8327 25H70.3333V30ZM66.3333 30V25H64.1635L62.6814 26.5848L66.3333 30ZM52.8667 44.4L48.8311 47.352L52.3952 52.2244L56.5186 47.8152L52.8667 44.4ZM42.3333 30L46.3689 27.048L44.8708 25H42.3333V30ZM29 30V25H19.1424L24.9657 32.9537L29 30ZM45.4 52.4L49.058 55.8086L51.8773 52.7831L49.4343 49.4463L45.4 52.4ZM29 70L25.342 66.5914L17.5066 75H29V70ZM33 70V75H35.1714L36.6537 73.4133L33 70ZM47.2 54.8L51.2337 51.8455L47.6669 46.9759L43.5463 51.3867L47.2 54.8ZM58.3333 70L54.2996 72.9545L55.7978 75H58.3333V70ZM71.6667 70V75H81.5291L75.6998 67.0447L71.6667 70ZM34.9333 32.6667V27.6667H25.0714L30.9001 35.6218L34.9333 32.6667ZM40.2667 32.6667L44.2999 29.7115L42.8017 27.6667H40.2667V32.6667ZM65.6667 67.3333V72.3333H75.5286L69.6999 64.3782L65.6667 67.3333ZM60.3333 67.3333L56.3001 70.2885L57.7983 72.3333H60.3333V67.3333ZM58.3234 50.21L73.9901 33.41L66.6766 26.59L51.0099 43.39L58.3234 50.21ZM70.3333 25H66.3333V35H70.3333V25ZM62.6814 26.5848L49.2148 40.9848L56.5186 47.8152L69.9852 33.4152L62.6814 26.5848ZM56.9023 41.448L46.3689 27.048L38.2977 32.952L48.8311 47.352L56.9023 41.448ZM42.3333 25H29V35H42.3333V25ZM24.9657 32.9537L41.3657 55.3537L49.4343 49.4463L33.0343 27.0463L24.9657 32.9537ZM41.742 48.9914L25.342 66.5914L32.658 73.4086L49.058 55.8086L41.742 48.9914ZM29 75H33V65H29V75ZM36.6537 73.4133L50.8537 58.2133L43.5463 51.3867L29.3463 66.5867L36.6537 73.4133ZM43.1663 57.7545L54.2996 72.9545L62.367 67.0455L51.2337 51.8455L43.1663 57.7545ZM58.3333 75H71.6667V65H58.3333V75ZM75.6998 67.0447L58.6998 43.8447L50.6335 49.7553L67.6335 72.9553L75.6998 67.0447ZM34.9333 37.6667H40.2667V27.6667H34.9333V37.6667ZM36.2334 35.6218L61.6334 70.2885L69.6999 64.3782L44.2999 29.7115L36.2334 35.6218ZM65.6667 62.3333H60.3333V72.3333H65.6667V62.3333ZM64.3666 64.3782L38.9666 29.7115L30.9001 35.6218L56.3001 70.2885L64.3666 64.3782Z" fill="white" mask="url(#path-2-inside-1_60_355)"/>
</svg>
