<svg width="273" height="234" viewBox="0 0 273 234" fill="none" xmlns="http://www.w3.org/2000/svg">
<path d="M100.97 233.753C68.4451 230.91 39.7197 218.846 21.0359 200.162C10.3722 189.521 3.90728 177.968 0.996966 164.35C-0.336002 158.152 -0.336002 147.888 1.01918 141.623C5.08473 122.695 17.3036 106.144 36.565 93.5028C80.4863 64.7107 147.779 64.844 191.3 93.836C197.076 97.6794 200.809 100.745 206.052 105.899C212.65 112.409 217.293 118.896 222.181 128.404C222.358 128.76 223.269 129.204 224.18 129.382C227.268 130.026 231.378 132.425 234.688 135.513C237.265 137.913 239.243 140.534 244.152 147.954C249.107 155.441 271.5 190.01 272.856 192.276C273.389 193.164 272.345 194.564 271.167 194.564C270.323 194.564 269.745 194.009 268.501 192.054C267.635 190.676 261.925 181.812 255.816 172.348C234.2 138.89 233.044 137.335 227.024 134.314L223.869 132.736H214.583C205.296 132.736 205.296 132.736 205.074 133.714C203.852 139.068 203.608 140.379 203.875 140.623C204.052 140.779 209.318 143.778 215.582 147.288L226.979 153.664L226.268 155.153C225.869 155.975 225.424 156.641 225.269 156.641C225.113 156.641 215.516 151.331 203.941 144.822C192.367 138.335 182.214 132.825 181.392 132.603C178.104 131.692 173.039 135.336 173.039 138.624C173.039 141.956 174.016 142.911 194.366 159.574C207.051 169.971 214.316 176.213 215.427 177.68C217.449 180.368 219.493 184.322 221.359 189.188C224.669 197.763 230.045 202.54 238.865 204.761L241.775 205.494L241.531 207.072C241.398 207.938 241.22 208.738 241.109 208.849C240.731 209.271 234.888 207.405 231.511 205.783C226.224 203.25 222.581 199.629 219.004 193.32C218.982 193.275 216.893 193.986 214.405 194.897C209.962 196.519 209.74 196.652 205.541 200.762C187.612 218.269 161.886 229.443 130.85 233.242C125.763 233.953 106.346 234.242 100.97 233.753ZM131.872 228.377C146.113 226.488 157.176 223.667 168.729 218.935C180.859 213.959 192.322 206.827 200.32 199.229L203.475 196.23L195.521 192.431C187.035 188.366 186.191 187.699 185.102 184.078C184.413 181.79 185.191 179.346 187.368 177.013L189.056 175.169L185.369 172.37C182.458 170.148 181.547 169.193 180.97 167.727C180.059 165.35 180.392 162.773 181.858 160.707L182.969 159.129L171.328 157.085C164.93 155.952 158.954 154.819 158.065 154.553C156.31 154.042 154.555 152.042 154.088 150.109C153.844 149.065 159.553 121.206 160.82 117.23C161.397 115.452 163.819 113.297 165.663 112.964C167.596 112.609 201.897 118.629 203.608 119.629C206.318 121.206 207.163 123.739 206.318 127.649L205.963 129.271H207.851C208.895 129.271 211.361 129.137 213.339 128.982L216.938 128.693L215.16 125.383C209.806 115.408 200.053 105.322 188.035 97.324C182.414 93.5916 170.439 87.6822 163.219 85.1051C152.955 81.4394 140.536 78.6846 128.606 77.4405C122.053 76.7518 104.924 76.774 98.5702 77.4627C83.3521 79.1067 69.5337 82.5502 57.4481 87.7044C29.4558 99.6344 10.6388 119.407 5.81786 141.934C4.55155 147.821 4.46268 158.129 5.61792 163.484C8.17277 175.325 13.7268 185.566 22.7688 195.097C41.2081 214.514 69.3782 226.466 103.147 229.154C107.679 229.51 127.273 228.977 131.872 228.377ZM125.718 207.183C123.985 206.672 122.208 204.606 121.83 202.628C121.586 201.34 121.875 200.451 123.719 196.874C131.183 182.434 134.427 169.149 134.427 153.042C134.427 137.468 131.561 125.338 124.43 110.809C122.897 107.699 121.653 104.789 121.653 104.366C121.653 102.811 122.941 100.568 124.341 99.7011C126.251 98.5014 129.473 98.7236 131.028 100.168C131.628 100.723 133.161 103.256 134.449 105.788C139.559 115.808 143.047 126.805 144.78 138.246C145.846 145.333 146.068 158.752 145.202 165.239C143.624 177.191 140.47 187.877 135.405 198.318C132.339 204.628 130.428 207.227 128.829 207.227C128.518 207.227 127.984 207.316 127.673 207.405C127.362 207.494 126.474 207.405 125.718 207.183ZM104.946 196.319C102.28 195.541 100.347 192.253 101.125 189.81C101.303 189.21 102.569 186.477 103.924 183.722C109.634 172.059 112.011 159.574 110.856 147.31C109.9 137.224 108.101 130.87 103.547 121.584C100.503 115.341 100.347 114.386 102.125 111.853C103.813 109.454 108.034 109.076 110.234 111.098C111.767 112.498 116.543 122.473 118.387 128.116C124.474 146.777 123.541 166.838 115.743 185.166C111.722 194.564 108.901 197.474 104.946 196.319ZM83.5299 185.3C81.8859 184.567 80.464 182.812 80.0641 181.057C79.8198 179.99 80.2419 178.79 82.1969 174.836C89.3949 160.262 89.4616 146.244 82.4413 132.003C79.3532 125.761 79.2866 124.516 81.8859 122.05C83.1744 120.829 83.7298 120.629 85.5293 120.629C88.5729 120.629 90.1503 122.162 92.8606 127.738C97.0373 136.313 98.7479 143.756 98.7257 153.286C98.7035 163.084 97.1039 169.815 92.6607 178.857C90.1058 184.033 88.8395 185.411 86.2847 185.744C85.5071 185.811 84.263 185.633 83.5299 185.3ZM63.5354 175.036C62.2246 174.503 60.7361 172.725 60.2918 171.17C59.803 169.437 60.2029 168.06 62.158 164.839C64.6906 160.684 65.2682 158.463 65.2682 153.042C65.2682 147.621 64.6906 145.377 62.158 141.245C61.2915 139.846 60.4473 138.157 60.2474 137.491C59.4254 134.758 61.7136 131.403 64.7795 130.826C67.3787 130.337 69.156 131.492 71.5554 135.225C78.4646 146.022 78.4646 160.418 71.5554 171.126C69.1116 174.88 66.4012 176.213 63.5354 175.036ZM212.45 191.787C214.76 190.965 216.76 190.187 216.893 190.054C217.027 189.921 216.582 188.454 215.894 186.766C214.516 183.323 214.738 183.411 209.806 184.345C204.497 185.366 201.409 184.456 195.588 180.168C194.011 178.99 192.367 178.035 191.967 178.035C191.545 178.035 190.656 178.635 189.945 179.39C188.457 180.99 188.234 183.478 189.434 184.967C190.5 186.255 205.096 193.209 206.829 193.253C207.607 193.275 210.117 192.609 212.45 191.787ZM210.14 180.612C212.294 180.168 212.539 180.035 212.161 179.324C211.739 178.546 191.545 161.795 189.79 160.751C188.346 159.907 187.168 160.107 185.968 161.395C182.458 165.15 182.88 165.95 191.967 172.903C202.942 181.323 204.119 181.812 210.14 180.612ZM183.036 155.219C183.036 155.108 180.748 153.131 177.948 150.843C171.039 145.155 169.551 143.023 169.551 138.801C169.551 135.291 171.906 131.892 175.682 129.937C177.548 128.96 180.903 128.671 182.791 129.293C184.124 129.737 190.167 133.003 198.521 137.802L200.276 138.824L201.72 131.937C203.208 124.894 203.23 123.028 201.853 122.606C201.431 122.473 193.366 121.006 183.947 119.34C167.196 116.385 165.352 116.208 164.574 117.474C164.152 118.14 157.776 147.688 157.776 148.932C157.776 149.554 158.087 150.332 158.487 150.665C158.865 150.998 164.308 152.176 170.573 153.286C182.658 155.464 183.036 155.53 183.036 155.219Z" fill="#789DBC"/>
<path d="M77.6767 17.22C73.7567 17.22 71.9567 15.38 71.7767 12.52H74.8767C75.0167 13.8 75.5567 14.86 77.6767 14.86C79.0967 14.86 80.0367 14.08 80.0367 12.96C80.0367 11.82 79.4367 11.42 77.3367 11.1C73.6767 10.62 72.1767 9.52 72.1767 6.76C72.1767 4.32 74.2167 2.5 77.3767 2.5C80.5967 2.5 82.4767 3.94 82.7367 6.78H79.7567C79.5567 5.48 78.7967 4.88 77.3767 4.88C75.9567 4.88 75.2367 5.54 75.2367 6.5C75.2367 7.52 75.6967 8 77.8967 8.32C81.3567 8.76 83.1367 9.7 83.1367 12.66C83.1367 15.2 81.0567 17.22 77.6767 17.22ZM89.9497 17.22C86.8897 17.22 84.5697 15.32 84.5697 11.9V11.74C84.5697 8.36 86.9897 6.3 89.9697 6.3C92.3897 6.3 94.6297 7.36 94.8897 10.36H92.1497C91.9497 9.14 91.2097 8.58 90.0297 8.58C88.5297 8.58 87.5297 9.7 87.5297 11.7V11.86C87.5297 13.96 88.4697 15.04 90.0897 15.04C91.2497 15.04 92.1897 14.36 92.3297 13.02H94.9497C94.7897 15.5 92.9897 17.22 89.9497 17.22ZM99.5922 17.22C97.6922 17.22 96.0922 16.3 96.0922 14.1C96.0922 11.66 98.3322 10.74 101.532 10.74H102.712V10.32C102.712 9.08 102.332 8.4 101.012 8.4C99.8722 8.4 99.3522 8.98 99.2322 9.88H96.4922C96.6722 7.4 98.6322 6.3 101.192 6.3C103.752 6.3 105.572 7.34 105.572 10.18V17H102.752V15.74C102.152 16.58 101.232 17.22 99.5922 17.22ZM100.452 15.2C101.732 15.2 102.712 14.5 102.712 13.34V12.46H101.592C99.9122 12.46 98.9322 12.82 98.9322 13.94C98.9322 14.7 99.3922 15.2 100.452 15.2ZM108.061 17V6.54H110.961V8.2C111.481 7.16 112.621 6.3 114.361 6.3C116.421 6.3 117.881 7.54 117.881 10.34V17H114.981V10.76C114.981 9.34 114.421 8.66 113.141 8.66C111.901 8.66 110.961 9.42 110.961 10.96V17H108.061ZM125.06 17V2.7H128.82L134.26 12.12V2.7H137.14V17H133.9L127.94 6.82V17H125.06ZM140.216 17V2.7H149.396V5.24H143.456V9.02H148.156V11.46H143.456V17H140.216ZM157.808 17.22C153.128 17.22 150.628 14.34 150.628 9.94V9.78C150.628 5.44 153.668 2.48 157.728 2.48C161.168 2.48 163.728 4.16 164.068 7.68H160.748C160.508 5.96 159.548 5.04 157.748 5.04C155.488 5.04 154.048 6.8 154.048 9.76V9.92C154.048 12.88 155.408 14.6 157.768 14.6C159.548 14.6 160.788 13.7 161.048 11.86H164.228C163.868 15.4 161.328 17.22 157.808 17.22ZM174.323 17.2C172.123 17.2 170.943 16.08 170.943 13.9V8.6H169.603V6.54H170.943V4.28H173.823V6.54H176.023V8.6H173.823V13.64C173.823 14.48 174.243 14.88 174.983 14.88C175.423 14.88 175.743 14.82 176.083 14.68V16.92C175.683 17.06 175.103 17.2 174.323 17.2ZM180.959 17.22C179.059 17.22 177.459 16.3 177.459 14.1C177.459 11.66 179.699 10.74 182.899 10.74H184.079V10.32C184.079 9.08 183.699 8.4 182.379 8.4C181.239 8.4 180.719 8.98 180.599 9.88H177.859C178.039 7.4 179.999 6.3 182.559 6.3C185.119 6.3 186.939 7.34 186.939 10.18V17H184.119V15.74C183.519 16.58 182.599 17.22 180.959 17.22ZM181.819 15.2C183.099 15.2 184.079 14.5 184.079 13.34V12.46H182.959C181.279 12.46 180.299 12.82 180.299 13.94C180.299 14.7 180.759 15.2 181.819 15.2ZM194.068 20.86C190.688 20.86 189.148 19.38 188.868 17.22H191.748C191.928 18.14 192.588 18.74 194.068 18.74C195.828 18.74 196.708 17.82 196.708 16.18V14.6C196.128 15.62 194.888 16.54 193.348 16.54C190.808 16.54 188.788 14.64 188.788 11.54V11.4C188.788 8.4 190.788 6.3 193.388 6.3C195.088 6.3 196.108 7.04 196.708 8.1V6.54H199.588V16.18C199.568 19.28 197.508 20.86 194.068 20.86ZM194.208 14.36C195.728 14.36 196.788 13.28 196.788 11.5V11.36C196.788 9.58 195.848 8.5 194.268 8.5C192.648 8.5 191.748 9.66 191.748 11.38V11.54C191.748 13.28 192.768 14.36 194.208 14.36Z" fill="#789DBC"/>
</svg>
