<svg width="273" height="234" viewBox="0 0 273 234" fill="none" xmlns="http://www.w3.org/2000/svg">
<path d="M100.97 233.753C68.4451 230.91 39.7197 218.846 21.0359 200.162C10.3722 189.521 3.90728 177.968 0.996966 164.35C-0.336002 158.152 -0.336002 147.888 1.01918 141.623C5.08473 122.695 17.3036 106.144 36.565 93.5028C80.4863 64.7107 147.779 64.844 191.3 93.836C197.076 97.6794 200.809 100.745 206.052 105.899C212.65 112.409 217.293 118.896 222.181 128.404C222.358 128.76 223.269 129.204 224.18 129.382C227.268 130.026 231.378 132.425 234.688 135.513C237.265 137.913 239.243 140.534 244.152 147.954C249.107 155.441 271.5 190.01 272.856 192.276C273.389 193.164 272.345 194.564 271.167 194.564C270.323 194.564 269.745 194.009 268.501 192.054C267.635 190.676 261.925 181.812 255.816 172.348C234.2 138.89 233.044 137.335 227.024 134.314L223.869 132.736H214.583C205.296 132.736 205.296 132.736 205.074 133.714C203.852 139.068 203.608 140.379 203.875 140.623C204.052 140.779 209.318 143.778 215.582 147.288L226.979 153.664L226.268 155.153C225.869 155.975 225.424 156.641 225.269 156.641C225.113 156.641 215.516 151.331 203.941 144.822C192.367 138.335 182.214 132.825 181.392 132.603C178.104 131.692 173.039 135.336 173.039 138.624C173.039 141.956 174.016 142.911 194.366 159.574C207.051 169.971 214.316 176.213 215.427 177.68C217.449 180.368 219.493 184.322 221.359 189.188C224.669 197.763 230.045 202.54 238.865 204.761L241.775 205.494L241.531 207.072C241.398 207.938 241.22 208.738 241.109 208.849C240.731 209.271 234.888 207.405 231.511 205.783C226.224 203.25 222.581 199.629 219.004 193.32C218.982 193.275 216.893 193.986 214.405 194.897C209.962 196.519 209.74 196.652 205.541 200.762C187.612 218.269 161.886 229.443 130.85 233.242C125.763 233.953 106.346 234.242 100.97 233.753ZM131.872 228.377C146.113 226.488 157.176 223.667 168.729 218.935C180.859 213.959 192.322 206.827 200.32 199.229L203.475 196.23L195.521 192.431C187.035 188.366 186.191 187.699 185.102 184.078C184.413 181.79 185.191 179.346 187.368 177.013L189.056 175.169L185.369 172.37C182.458 170.148 181.547 169.193 180.97 167.727C180.059 165.35 180.392 162.773 181.858 160.707L182.969 159.129L171.328 157.085C164.93 155.952 158.954 154.819 158.065 154.553C156.31 154.042 154.555 152.042 154.088 150.109C153.844 149.065 159.553 121.206 160.82 117.23C161.397 115.452 163.819 113.297 165.663 112.964C167.596 112.609 201.897 118.629 203.608 119.629C206.318 121.206 207.163 123.739 206.318 127.649L205.963 129.271H207.851C208.895 129.271 211.361 129.137 213.339 128.982L216.938 128.693L215.16 125.383C209.806 115.408 200.053 105.322 188.035 97.324C182.414 93.5916 170.439 87.6822 163.219 85.1051C152.955 81.4394 140.536 78.6846 128.606 77.4405C122.053 76.7518 104.924 76.774 98.5702 77.4627C83.3521 79.1067 69.5337 82.5502 57.4481 87.7044C29.4558 99.6344 10.6388 119.407 5.81786 141.934C4.55155 147.821 4.46268 158.129 5.61792 163.484C8.17277 175.325 13.7268 185.566 22.7688 195.097C41.2081 214.514 69.3782 226.466 103.147 229.154C107.679 229.51 127.273 228.977 131.872 228.377ZM125.718 207.183C123.985 206.672 122.208 204.606 121.83 202.628C121.586 201.34 121.875 200.451 123.719 196.874C131.183 182.434 134.427 169.149 134.427 153.042C134.427 137.468 131.561 125.338 124.43 110.809C122.897 107.699 121.653 104.789 121.653 104.366C121.653 102.811 122.941 100.568 124.341 99.7011C126.251 98.5014 129.473 98.7236 131.028 100.168C131.628 100.723 133.161 103.256 134.449 105.788C139.559 115.808 143.047 126.805 144.78 138.246C145.846 145.333 146.068 158.752 145.202 165.239C143.624 177.191 140.47 187.877 135.405 198.318C132.339 204.628 130.428 207.227 128.829 207.227C128.518 207.227 127.984 207.316 127.673 207.405C127.362 207.494 126.474 207.405 125.718 207.183ZM104.946 196.319C102.28 195.541 100.347 192.253 101.125 189.81C101.303 189.21 102.569 186.477 103.924 183.722C109.634 172.059 112.011 159.574 110.856 147.31C109.9 137.224 108.101 130.87 103.547 121.584C100.503 115.341 100.347 114.386 102.125 111.853C103.813 109.454 108.034 109.076 110.234 111.098C111.767 112.498 116.543 122.473 118.387 128.116C124.474 146.777 123.541 166.838 115.743 185.166C111.722 194.564 108.901 197.474 104.946 196.319ZM83.5299 185.3C81.8859 184.567 80.464 182.812 80.0641 181.057C79.8198 179.99 80.2419 178.79 82.1969 174.836C89.3949 160.262 89.4616 146.244 82.4413 132.003C79.3532 125.761 79.2866 124.516 81.8859 122.05C83.1744 120.829 83.7298 120.629 85.5293 120.629C88.5729 120.629 90.1503 122.162 92.8606 127.738C97.0373 136.313 98.7479 143.756 98.7257 153.286C98.7035 163.084 97.1039 169.815 92.6607 178.857C90.1058 184.033 88.8395 185.411 86.2847 185.744C85.5071 185.811 84.263 185.633 83.5299 185.3ZM63.5354 175.036C62.2246 174.503 60.7361 172.725 60.2918 171.17C59.803 169.437 60.2029 168.06 62.158 164.839C64.6906 160.684 65.2682 158.463 65.2682 153.042C65.2682 147.621 64.6906 145.377 62.158 141.245C61.2915 139.846 60.4473 138.157 60.2474 137.491C59.4254 134.758 61.7136 131.403 64.7795 130.826C67.3787 130.337 69.156 131.492 71.5554 135.225C78.4646 146.022 78.4646 160.418 71.5554 171.126C69.1116 174.88 66.4012 176.213 63.5354 175.036ZM212.45 191.787C214.76 190.965 216.76 190.187 216.893 190.054C217.027 189.921 216.582 188.454 215.894 186.766C214.516 183.323 214.738 183.411 209.806 184.345C204.497 185.366 201.409 184.456 195.588 180.168C194.011 178.99 192.367 178.035 191.967 178.035C191.545 178.035 190.656 178.635 189.945 179.39C188.457 180.99 188.234 183.478 189.434 184.967C190.5 186.255 205.096 193.209 206.829 193.253C207.607 193.275 210.117 192.609 212.45 191.787ZM210.14 180.612C212.294 180.168 212.539 180.035 212.161 179.324C211.739 178.546 191.545 161.795 189.79 160.751C188.346 159.907 187.168 160.107 185.968 161.395C182.458 165.15 182.88 165.95 191.967 172.903C202.942 181.323 204.119 181.812 210.14 180.612ZM183.036 155.219C183.036 155.108 180.748 153.131 177.948 150.843C171.039 145.155 169.551 143.023 169.551 138.801C169.551 135.291 171.906 131.892 175.682 129.937C177.548 128.96 180.903 128.671 182.791 129.293C184.124 129.737 190.167 133.003 198.521 137.802L200.276 138.824L201.72 131.937C203.208 124.894 203.23 123.028 201.853 122.606C201.431 122.473 193.366 121.006 183.947 119.34C167.196 116.385 165.352 116.208 164.574 117.474C164.152 118.14 157.776 147.688 157.776 148.932C157.776 149.554 158.087 150.332 158.487 150.665C158.865 150.998 164.308 152.176 170.573 153.286C182.658 155.464 183.036 155.53 183.036 155.219Z" fill="#789DBC"/>
<path d="M54.54 17.22C50.62 17.22 48.82 15.38 48.64 12.52H51.74C51.88 13.8 52.42 14.86 54.54 14.86C55.96 14.86 56.9 14.08 56.9 12.96C56.9 11.82 56.3 11.42 54.2 11.1C50.54 10.62 49.04 9.52 49.04 6.76C49.04 4.32 51.08 2.5 54.24 2.5C57.46 2.5 59.34 3.94 59.6 6.78H56.62C56.42 5.48 55.66 4.88 54.24 4.88C52.82 4.88 52.1 5.54 52.1 6.5C52.1 7.52 52.56 8 54.76 8.32C58.22 8.76 60 9.7 60 12.66C60 15.2 57.92 17.22 54.54 17.22ZM66.813 17.22C63.753 17.22 61.433 15.32 61.433 11.9V11.74C61.433 8.36 63.853 6.3 66.833 6.3C69.253 6.3 71.493 7.36 71.753 10.36H69.013C68.813 9.14 68.073 8.58 66.893 8.58C65.393 8.58 64.393 9.7 64.393 11.7V11.86C64.393 13.96 65.333 15.04 66.953 15.04C68.113 15.04 69.053 14.36 69.193 13.02H71.813C71.653 15.5 69.853 17.22 66.813 17.22ZM76.4555 17.22C74.5555 17.22 72.9555 16.3 72.9555 14.1C72.9555 11.66 75.1955 10.74 78.3955 10.74H79.5755V10.32C79.5755 9.08 79.1955 8.4 77.8755 8.4C76.7355 8.4 76.2155 8.98 76.0955 9.88H73.3555C73.5355 7.4 75.4955 6.3 78.0555 6.3C80.6155 6.3 82.4355 7.34 82.4355 10.18V17H79.6155V15.74C79.0155 16.58 78.0955 17.22 76.4555 17.22ZM77.3155 15.2C78.5955 15.2 79.5755 14.5 79.5755 13.34V12.46H78.4555C76.7755 12.46 75.7955 12.82 75.7955 13.94C75.7955 14.7 76.2555 15.2 77.3155 15.2ZM84.9245 17V6.54H87.8245V8.2C88.3445 7.16 89.4845 6.3 91.2245 6.3C93.2845 6.3 94.7445 7.54 94.7445 10.34V17H91.8445V10.76C91.8445 9.34 91.2845 8.66 90.0045 8.66C88.7645 8.66 87.8245 9.42 87.8245 10.96V17H84.9245ZM101.029 17.22C98.2092 17.22 96.5692 15.98 96.4692 13.72H99.1692C99.2892 14.66 99.7492 15.2 101.009 15.2C102.129 15.2 102.649 14.78 102.649 14.06C102.649 13.34 102.029 13.04 100.529 12.82C97.7492 12.4 96.6692 11.6 96.6692 9.56C96.6692 7.38 98.6692 6.3 100.809 6.3C103.129 6.3 104.869 7.14 105.129 9.54H102.469C102.309 8.68 101.829 8.28 100.829 8.28C99.8892 8.28 99.3492 8.72 99.3492 9.36C99.3492 10.02 99.8492 10.28 101.369 10.5C103.989 10.88 105.429 11.54 105.429 13.78C105.429 16.04 103.789 17.22 101.029 17.22ZM107.348 17V6.54H110.228V17H107.348ZM108.768 5.12C107.848 5.12 107.128 4.44 107.128 3.54C107.128 2.64 107.848 1.96 108.768 1.96C109.708 1.96 110.428 2.64 110.428 3.54C110.428 4.44 109.708 5.12 108.768 5.12ZM117.773 15.02C119.393 15.02 120.333 13.82 120.333 11.84V11.7C120.333 9.7 119.393 8.5 117.773 8.5C116.173 8.5 115.213 9.66 115.213 11.66V11.82C115.213 13.82 116.133 15.02 117.773 15.02ZM117.753 17.22C114.633 17.22 112.253 15.14 112.253 11.88V11.72C112.253 8.44 114.633 6.3 117.773 6.3C120.913 6.3 123.273 8.4 123.273 11.66V11.82C123.273 15.12 120.893 17.22 117.753 17.22ZM125.218 17V6.54H128.118V8.2C128.638 7.16 129.778 6.3 131.518 6.3C133.578 6.3 135.038 7.54 135.038 10.34V17H132.138V10.76C132.138 9.34 131.578 8.66 130.298 8.66C129.058 8.66 128.118 9.42 128.118 10.96V17H125.218ZM140.342 17.22C138.442 17.22 136.842 16.3 136.842 14.1C136.842 11.66 139.082 10.74 142.282 10.74H143.462V10.32C143.462 9.08 143.082 8.4 141.762 8.4C140.622 8.4 140.102 8.98 139.982 9.88H137.242C137.422 7.4 139.382 6.3 141.942 6.3C144.502 6.3 146.322 7.34 146.322 10.18V17H143.502V15.74C142.902 16.58 141.982 17.22 140.342 17.22ZM141.202 15.2C142.482 15.2 143.462 14.5 143.462 13.34V12.46H142.342C140.662 12.46 139.682 12.82 139.682 13.94C139.682 14.7 140.142 15.2 141.202 15.2ZM153.325 17V1.8H156.205V17H153.325ZM161.67 17.22C159.77 17.22 158.17 16.3 158.17 14.1C158.17 11.66 160.41 10.74 163.61 10.74H164.79V10.32C164.79 9.08 164.41 8.4 163.09 8.4C161.95 8.4 161.43 8.98 161.31 9.88H158.57C158.75 7.4 160.71 6.3 163.27 6.3C165.83 6.3 167.65 7.34 167.65 10.18V17H164.83V15.74C164.23 16.58 163.31 17.22 161.67 17.22ZM162.53 15.2C163.81 15.2 164.79 14.5 164.79 13.34V12.46H163.67C161.99 12.46 161.01 12.82 161.01 13.94C161.01 14.7 161.47 15.2 162.53 15.2ZM179.313 17.22C176.253 17.22 173.933 15.32 173.933 11.9V11.74C173.933 8.36 176.353 6.3 179.333 6.3C181.753 6.3 183.993 7.36 184.253 10.36H181.513C181.313 9.14 180.573 8.58 179.393 8.58C177.893 8.58 176.893 9.7 176.893 11.7V11.86C176.893 13.96 177.833 15.04 179.453 15.04C180.613 15.04 181.553 14.36 181.693 13.02H184.313C184.153 15.5 182.353 17.22 179.313 17.22ZM188.955 17.22C187.055 17.22 185.455 16.3 185.455 14.1C185.455 11.66 187.695 10.74 190.895 10.74H192.075V10.32C192.075 9.08 191.695 8.4 190.375 8.4C189.235 8.4 188.715 8.98 188.595 9.88H185.855C186.035 7.4 187.995 6.3 190.555 6.3C193.115 6.3 194.935 7.34 194.935 10.18V17H192.115V15.74C191.515 16.58 190.595 17.22 188.955 17.22ZM189.815 15.2C191.095 15.2 192.075 14.5 192.075 13.34V12.46H190.955C189.275 12.46 188.295 12.82 188.295 13.94C188.295 14.7 188.755 15.2 189.815 15.2ZM197.425 17V6.54H200.325V8.54C200.985 7.14 202.005 6.4 203.705 6.38V9.08C201.565 9.06 200.325 9.76 200.325 11.76V17H197.425ZM209.526 17.2C207.326 17.2 206.146 16.08 206.146 13.9V8.6H204.806V6.54H206.146V4.28H209.026V6.54H211.226V8.6H209.026V13.64C209.026 14.48 209.446 14.88 210.186 14.88C210.626 14.88 210.946 14.82 211.286 14.68V16.92C210.886 17.06 210.306 17.2 209.526 17.2ZM216.163 17.22C214.263 17.22 212.663 16.3 212.663 14.1C212.663 11.66 214.903 10.74 218.103 10.74H219.283V10.32C219.283 9.08 218.903 8.4 217.583 8.4C216.443 8.4 215.923 8.98 215.803 9.88H213.063C213.243 7.4 215.203 6.3 217.763 6.3C220.323 6.3 222.143 7.34 222.143 10.18V17H219.323V15.74C218.723 16.58 217.803 17.22 216.163 17.22ZM217.023 15.2C218.303 15.2 219.283 14.5 219.283 13.34V12.46H218.163C216.483 12.46 215.503 12.82 215.503 13.94C215.503 14.7 215.963 15.2 217.023 15.2Z" fill="#789DBC"/>
</svg>
