<svg width="13" height="20" viewBox="0 0 13 20" fill="none" xmlns="http://www.w3.org/2000/svg">
<path d="M10.3953 20C10.8065 19.9999 11.2083 19.8827 11.5502 19.6632C11.892 19.4437 12.1584 19.1318 12.3158 18.7668C12.4731 18.4019 12.5143 18.0003 12.4341 17.6129C12.3539 17.2254 12.1559 16.8696 11.8653 16.5902L5.01862 10.0123L11.8653 3.43436C12.0638 3.25009 12.2222 3.02967 12.3312 2.78596C12.4402 2.54225 12.4975 2.28014 12.4999 2.0149C12.5023 1.74967 12.4497 1.48663 12.3452 1.24114C12.2406 0.995652 12.0862 0.772622 11.891 0.585067C11.6958 0.397512 11.4637 0.249188 11.2082 0.14875C10.9526 0.0483115 10.6789 -0.00222938 10.4028 7.54214e-05C10.1267 0.00238022 9.85389 0.0574851 9.60023 0.162174C9.34656 0.266864 9.11714 0.419041 8.92534 0.609827L0.608746 8.60001C0.218966 8.9746 0 9.4826 0 10.0123C0 10.542 0.218966 11.0499 0.608746 11.4245L8.92534 19.4147C9.31517 19.7894 9.84392 19.9999 10.3953 20Z" fill="#777777"/>
</svg>
